<?xml version="1.0" encoding="utf-8" standalone="no"?>
<!DOCTYPE svg PUBLIC "-//W3C//DTD SVG 1.1//EN"
  "http://www.w3.org/Graphics/SVG/1.1/DTD/svg11.dtd">
<svg xmlns:xlink="http://www.w3.org/1999/xlink" width="1382.4pt" height="702pt" viewBox="0 0 1382.4 702" xmlns="http://www.w3.org/2000/svg" version="1.1">
 <metadata>
  <rdf:RDF xmlns:dc="http://purl.org/dc/elements/1.1/" xmlns:cc="http://creativecommons.org/ns#" xmlns:rdf="http://www.w3.org/1999/02/22-rdf-syntax-ns#">
   <cc:Work>
    <dc:type rdf:resource="http://purl.org/dc/dcmitype/StillImage"/>
    <dc:date>2023-05-24T11:26:33.226030</dc:date>
    <dc:format>image/svg+xml</dc:format>
    <dc:creator>
     <cc:Agent>
      <dc:title>Matplotlib v3.7.1, https://matplotlib.org/</dc:title>
     </cc:Agent>
    </dc:creator>
   </cc:Work>
  </rdf:RDF>
 </metadata>
 <defs>
  <style type="text/css">*{stroke-linejoin: round; stroke-linecap: butt}</style>
 </defs>
 <g id="figure_1">
  <g id="patch_1">
   <path d="M 0 702 
L 1382.4 702 
L 1382.4 0 
L 0 0 
z
" style="fill: #ffffff"/>
  </g>
  <g id="axes_1">
   <g id="patch_2">
    <path d="M 172.8 624.78 
L 1244.16 624.78 
L 1244.16 84.24 
L 172.8 84.24 
z
" style="fill: #ffffff"/>
   </g>
   <g id="matplotlib.axis_1">
    <g id="xtick_1">
     <g id="line2d_1">
      <path d="M 221.498182 624.78 
L 221.498182 84.24 
" clip-path="url(#pa936419c6d)" style="fill: none; stroke: #b0b0b0; stroke-width: 0.8; stroke-linecap: square"/>
     </g>
     <g id="line2d_2">
      <defs>
       <path id="m9a2702721a" d="M 0 0 
L 0 3.5 
" style="stroke: #000000; stroke-width: 0.8"/>
      </defs>
      <g>
       <use xlink:href="#m9a2702721a" x="221.498182" y="624.78" style="stroke: #000000; stroke-width: 0.8"/>
      </g>
     </g>
     <g id="text_1">
      <!-- 76 -->
      <g transform="translate(215.135682 639.378438) scale(0.1 -0.1)">
       <defs>
        <path id="DejaVuSans-37" d="M 525 4666 
L 3525 4666 
L 3525 4397 
L 1831 0 
L 1172 0 
L 2766 4134 
L 525 4134 
L 525 4666 
z
" transform="scale(0.015625)"/>
        <path id="DejaVuSans-36" d="M 2113 2584 
Q 1688 2584 1439 2293 
Q 1191 2003 1191 1497 
Q 1191 994 1439 701 
Q 1688 409 2113 409 
Q 2538 409 2786 701 
Q 3034 994 3034 1497 
Q 3034 2003 2786 2293 
Q 2538 2584 2113 2584 
z
M 3366 4563 
L 3366 3988 
Q 3128 4100 2886 4159 
Q 2644 4219 2406 4219 
Q 1781 4219 1451 3797 
Q 1122 3375 1075 2522 
Q 1259 2794 1537 2939 
Q 1816 3084 2150 3084 
Q 2853 3084 3261 2657 
Q 3669 2231 3669 1497 
Q 3669 778 3244 343 
Q 2819 -91 2113 -91 
Q 1303 -91 875 529 
Q 447 1150 447 2328 
Q 447 3434 972 4092 
Q 1497 4750 2381 4750 
Q 2619 4750 2861 4703 
Q 3103 4656 3366 4563 
z
" transform="scale(0.015625)"/>
       </defs>
       <use xlink:href="#DejaVuSans-37"/>
       <use xlink:href="#DejaVuSans-36" x="63.623047"/>
      </g>
     </g>
    </g>
    <g id="xtick_2">
     <g id="line2d_3">
      <path d="M 416.290909 624.78 
L 416.290909 84.24 
" clip-path="url(#pa936419c6d)" style="fill: none; stroke: #b0b0b0; stroke-width: 0.8; stroke-linecap: square"/>
     </g>
     <g id="line2d_4">
      <g>
       <use xlink:href="#m9a2702721a" x="416.290909" y="624.78" style="stroke: #000000; stroke-width: 0.8"/>
      </g>
     </g>
     <g id="text_2">
      <!-- 77 -->
      <g transform="translate(409.928409 639.378438) scale(0.1 -0.1)">
       <use xlink:href="#DejaVuSans-37"/>
       <use xlink:href="#DejaVuSans-37" x="63.623047"/>
      </g>
     </g>
    </g>
    <g id="xtick_3">
     <g id="line2d_5">
      <path d="M 611.083636 624.78 
L 611.083636 84.24 
" clip-path="url(#pa936419c6d)" style="fill: none; stroke: #b0b0b0; stroke-width: 0.8; stroke-linecap: square"/>
     </g>
     <g id="line2d_6">
      <g>
       <use xlink:href="#m9a2702721a" x="611.083636" y="624.78" style="stroke: #000000; stroke-width: 0.8"/>
      </g>
     </g>
     <g id="text_3">
      <!-- 78 -->
      <g transform="translate(604.721136 639.378438) scale(0.1 -0.1)">
       <defs>
        <path id="DejaVuSans-38" d="M 2034 2216 
Q 1584 2216 1326 1975 
Q 1069 1734 1069 1313 
Q 1069 891 1326 650 
Q 1584 409 2034 409 
Q 2484 409 2743 651 
Q 3003 894 3003 1313 
Q 3003 1734 2745 1975 
Q 2488 2216 2034 2216 
z
M 1403 2484 
Q 997 2584 770 2862 
Q 544 3141 544 3541 
Q 544 4100 942 4425 
Q 1341 4750 2034 4750 
Q 2731 4750 3128 4425 
Q 3525 4100 3525 3541 
Q 3525 3141 3298 2862 
Q 3072 2584 2669 2484 
Q 3125 2378 3379 2068 
Q 3634 1759 3634 1313 
Q 3634 634 3220 271 
Q 2806 -91 2034 -91 
Q 1263 -91 848 271 
Q 434 634 434 1313 
Q 434 1759 690 2068 
Q 947 2378 1403 2484 
z
M 1172 3481 
Q 1172 3119 1398 2916 
Q 1625 2713 2034 2713 
Q 2441 2713 2670 2916 
Q 2900 3119 2900 3481 
Q 2900 3844 2670 4047 
Q 2441 4250 2034 4250 
Q 1625 4250 1398 4047 
Q 1172 3844 1172 3481 
z
" transform="scale(0.015625)"/>
       </defs>
       <use xlink:href="#DejaVuSans-37"/>
       <use xlink:href="#DejaVuSans-38" x="63.623047"/>
      </g>
     </g>
    </g>
    <g id="xtick_4">
     <g id="line2d_7">
      <path d="M 805.876364 624.78 
L 805.876364 84.24 
" clip-path="url(#pa936419c6d)" style="fill: none; stroke: #b0b0b0; stroke-width: 0.8; stroke-linecap: square"/>
     </g>
     <g id="line2d_8">
      <g>
       <use xlink:href="#m9a2702721a" x="805.876364" y="624.78" style="stroke: #000000; stroke-width: 0.8"/>
      </g>
     </g>
     <g id="text_4">
      <!-- 79 -->
      <g transform="translate(799.513864 639.378438) scale(0.1 -0.1)">
       <defs>
        <path id="DejaVuSans-39" d="M 703 97 
L 703 672 
Q 941 559 1184 500 
Q 1428 441 1663 441 
Q 2288 441 2617 861 
Q 2947 1281 2994 2138 
Q 2813 1869 2534 1725 
Q 2256 1581 1919 1581 
Q 1219 1581 811 2004 
Q 403 2428 403 3163 
Q 403 3881 828 4315 
Q 1253 4750 1959 4750 
Q 2769 4750 3195 4129 
Q 3622 3509 3622 2328 
Q 3622 1225 3098 567 
Q 2575 -91 1691 -91 
Q 1453 -91 1209 -44 
Q 966 3 703 97 
z
M 1959 2075 
Q 2384 2075 2632 2365 
Q 2881 2656 2881 3163 
Q 2881 3666 2632 3958 
Q 2384 4250 1959 4250 
Q 1534 4250 1286 3958 
Q 1038 3666 1038 3163 
Q 1038 2656 1286 2365 
Q 1534 2075 1959 2075 
z
" transform="scale(0.015625)"/>
       </defs>
       <use xlink:href="#DejaVuSans-37"/>
       <use xlink:href="#DejaVuSans-39" x="63.623047"/>
      </g>
     </g>
    </g>
    <g id="xtick_5">
     <g id="line2d_9">
      <path d="M 1000.669091 624.78 
L 1000.669091 84.24 
" clip-path="url(#pa936419c6d)" style="fill: none; stroke: #b0b0b0; stroke-width: 0.8; stroke-linecap: square"/>
     </g>
     <g id="line2d_10">
      <g>
       <use xlink:href="#m9a2702721a" x="1000.669091" y="624.78" style="stroke: #000000; stroke-width: 0.8"/>
      </g>
     </g>
     <g id="text_5">
      <!-- 80 -->
      <g transform="translate(994.306591 639.378438) scale(0.1 -0.1)">
       <defs>
        <path id="DejaVuSans-30" d="M 2034 4250 
Q 1547 4250 1301 3770 
Q 1056 3291 1056 2328 
Q 1056 1369 1301 889 
Q 1547 409 2034 409 
Q 2525 409 2770 889 
Q 3016 1369 3016 2328 
Q 3016 3291 2770 3770 
Q 2525 4250 2034 4250 
z
M 2034 4750 
Q 2819 4750 3233 4129 
Q 3647 3509 3647 2328 
Q 3647 1150 3233 529 
Q 2819 -91 2034 -91 
Q 1250 -91 836 529 
Q 422 1150 422 2328 
Q 422 3509 836 4129 
Q 1250 4750 2034 4750 
z
" transform="scale(0.015625)"/>
       </defs>
       <use xlink:href="#DejaVuSans-38"/>
       <use xlink:href="#DejaVuSans-30" x="63.623047"/>
      </g>
     </g>
    </g>
    <g id="xtick_6">
     <g id="line2d_11">
      <path d="M 1195.461818 624.78 
L 1195.461818 84.24 
" clip-path="url(#pa936419c6d)" style="fill: none; stroke: #b0b0b0; stroke-width: 0.8; stroke-linecap: square"/>
     </g>
     <g id="line2d_12">
      <g>
       <use xlink:href="#m9a2702721a" x="1195.461818" y="624.78" style="stroke: #000000; stroke-width: 0.8"/>
      </g>
     </g>
     <g id="text_6">
      <!-- 81 -->
      <g transform="translate(1189.099318 639.378438) scale(0.1 -0.1)">
       <defs>
        <path id="DejaVuSans-31" d="M 794 531 
L 1825 531 
L 1825 4091 
L 703 3866 
L 703 4441 
L 1819 4666 
L 2450 4666 
L 2450 531 
L 3481 531 
L 3481 0 
L 794 0 
L 794 531 
z
" transform="scale(0.015625)"/>
       </defs>
       <use xlink:href="#DejaVuSans-38"/>
       <use xlink:href="#DejaVuSans-31" x="63.623047"/>
      </g>
     </g>
    </g>
    <g id="text_7">
     <!-- Frequency in GHz -->
     <g transform="translate(647.126094 656.095937) scale(0.14 -0.14)">
      <defs>
       <path id="DejaVuSans-46" d="M 628 4666 
L 3309 4666 
L 3309 4134 
L 1259 4134 
L 1259 2759 
L 3109 2759 
L 3109 2228 
L 1259 2228 
L 1259 0 
L 628 0 
L 628 4666 
z
" transform="scale(0.015625)"/>
       <path id="DejaVuSans-72" d="M 2631 2963 
Q 2534 3019 2420 3045 
Q 2306 3072 2169 3072 
Q 1681 3072 1420 2755 
Q 1159 2438 1159 1844 
L 1159 0 
L 581 0 
L 581 3500 
L 1159 3500 
L 1159 2956 
Q 1341 3275 1631 3429 
Q 1922 3584 2338 3584 
Q 2397 3584 2469 3576 
Q 2541 3569 2628 3553 
L 2631 2963 
z
" transform="scale(0.015625)"/>
       <path id="DejaVuSans-65" d="M 3597 1894 
L 3597 1613 
L 953 1613 
Q 991 1019 1311 708 
Q 1631 397 2203 397 
Q 2534 397 2845 478 
Q 3156 559 3463 722 
L 3463 178 
Q 3153 47 2828 -22 
Q 2503 -91 2169 -91 
Q 1331 -91 842 396 
Q 353 884 353 1716 
Q 353 2575 817 3079 
Q 1281 3584 2069 3584 
Q 2775 3584 3186 3129 
Q 3597 2675 3597 1894 
z
M 3022 2063 
Q 3016 2534 2758 2815 
Q 2500 3097 2075 3097 
Q 1594 3097 1305 2825 
Q 1016 2553 972 2059 
L 3022 2063 
z
" transform="scale(0.015625)"/>
       <path id="DejaVuSans-71" d="M 947 1747 
Q 947 1113 1208 752 
Q 1469 391 1925 391 
Q 2381 391 2643 752 
Q 2906 1113 2906 1747 
Q 2906 2381 2643 2742 
Q 2381 3103 1925 3103 
Q 1469 3103 1208 2742 
Q 947 2381 947 1747 
z
M 2906 525 
Q 2725 213 2448 61 
Q 2172 -91 1784 -91 
Q 1150 -91 751 415 
Q 353 922 353 1747 
Q 353 2572 751 3078 
Q 1150 3584 1784 3584 
Q 2172 3584 2448 3432 
Q 2725 3281 2906 2969 
L 2906 3500 
L 3481 3500 
L 3481 -1331 
L 2906 -1331 
L 2906 525 
z
" transform="scale(0.015625)"/>
       <path id="DejaVuSans-75" d="M 544 1381 
L 544 3500 
L 1119 3500 
L 1119 1403 
Q 1119 906 1312 657 
Q 1506 409 1894 409 
Q 2359 409 2629 706 
Q 2900 1003 2900 1516 
L 2900 3500 
L 3475 3500 
L 3475 0 
L 2900 0 
L 2900 538 
Q 2691 219 2414 64 
Q 2138 -91 1772 -91 
Q 1169 -91 856 284 
Q 544 659 544 1381 
z
M 1991 3584 
L 1991 3584 
z
" transform="scale(0.015625)"/>
       <path id="DejaVuSans-6e" d="M 3513 2113 
L 3513 0 
L 2938 0 
L 2938 2094 
Q 2938 2591 2744 2837 
Q 2550 3084 2163 3084 
Q 1697 3084 1428 2787 
Q 1159 2491 1159 1978 
L 1159 0 
L 581 0 
L 581 3500 
L 1159 3500 
L 1159 2956 
Q 1366 3272 1645 3428 
Q 1925 3584 2291 3584 
Q 2894 3584 3203 3211 
Q 3513 2838 3513 2113 
z
" transform="scale(0.015625)"/>
       <path id="DejaVuSans-63" d="M 3122 3366 
L 3122 2828 
Q 2878 2963 2633 3030 
Q 2388 3097 2138 3097 
Q 1578 3097 1268 2742 
Q 959 2388 959 1747 
Q 959 1106 1268 751 
Q 1578 397 2138 397 
Q 2388 397 2633 464 
Q 2878 531 3122 666 
L 3122 134 
Q 2881 22 2623 -34 
Q 2366 -91 2075 -91 
Q 1284 -91 818 406 
Q 353 903 353 1747 
Q 353 2603 823 3093 
Q 1294 3584 2113 3584 
Q 2378 3584 2631 3529 
Q 2884 3475 3122 3366 
z
" transform="scale(0.015625)"/>
       <path id="DejaVuSans-79" d="M 2059 -325 
Q 1816 -950 1584 -1140 
Q 1353 -1331 966 -1331 
L 506 -1331 
L 506 -850 
L 844 -850 
Q 1081 -850 1212 -737 
Q 1344 -625 1503 -206 
L 1606 56 
L 191 3500 
L 800 3500 
L 1894 763 
L 2988 3500 
L 3597 3500 
L 2059 -325 
z
" transform="scale(0.015625)"/>
       <path id="DejaVuSans-20" transform="scale(0.015625)"/>
       <path id="DejaVuSans-69" d="M 603 3500 
L 1178 3500 
L 1178 0 
L 603 0 
L 603 3500 
z
M 603 4863 
L 1178 4863 
L 1178 4134 
L 603 4134 
L 603 4863 
z
" transform="scale(0.015625)"/>
       <path id="DejaVuSans-47" d="M 3809 666 
L 3809 1919 
L 2778 1919 
L 2778 2438 
L 4434 2438 
L 4434 434 
Q 4069 175 3628 42 
Q 3188 -91 2688 -91 
Q 1594 -91 976 548 
Q 359 1188 359 2328 
Q 359 3472 976 4111 
Q 1594 4750 2688 4750 
Q 3144 4750 3555 4637 
Q 3966 4525 4313 4306 
L 4313 3634 
Q 3963 3931 3569 4081 
Q 3175 4231 2741 4231 
Q 1884 4231 1454 3753 
Q 1025 3275 1025 2328 
Q 1025 1384 1454 906 
Q 1884 428 2741 428 
Q 3075 428 3337 486 
Q 3600 544 3809 666 
z
" transform="scale(0.015625)"/>
       <path id="DejaVuSans-48" d="M 628 4666 
L 1259 4666 
L 1259 2753 
L 3553 2753 
L 3553 4666 
L 4184 4666 
L 4184 0 
L 3553 0 
L 3553 2222 
L 1259 2222 
L 1259 0 
L 628 0 
L 628 4666 
z
" transform="scale(0.015625)"/>
       <path id="DejaVuSans-7a" d="M 353 3500 
L 3084 3500 
L 3084 2975 
L 922 459 
L 3084 459 
L 3084 0 
L 275 0 
L 275 525 
L 2438 3041 
L 353 3041 
L 353 3500 
z
" transform="scale(0.015625)"/>
      </defs>
      <use xlink:href="#DejaVuSans-46"/>
      <use xlink:href="#DejaVuSans-72" x="50.269531"/>
      <use xlink:href="#DejaVuSans-65" x="89.132812"/>
      <use xlink:href="#DejaVuSans-71" x="150.65625"/>
      <use xlink:href="#DejaVuSans-75" x="214.132812"/>
      <use xlink:href="#DejaVuSans-65" x="277.511719"/>
      <use xlink:href="#DejaVuSans-6e" x="339.035156"/>
      <use xlink:href="#DejaVuSans-63" x="402.414062"/>
      <use xlink:href="#DejaVuSans-79" x="457.394531"/>
      <use xlink:href="#DejaVuSans-20" x="516.574219"/>
      <use xlink:href="#DejaVuSans-69" x="548.361328"/>
      <use xlink:href="#DejaVuSans-6e" x="576.144531"/>
      <use xlink:href="#DejaVuSans-20" x="639.523438"/>
      <use xlink:href="#DejaVuSans-47" x="671.310547"/>
      <use xlink:href="#DejaVuSans-48" x="748.800781"/>
      <use xlink:href="#DejaVuSans-7a" x="823.996094"/>
     </g>
    </g>
   </g>
   <g id="matplotlib.axis_2">
    <g id="ytick_1">
     <g id="line2d_13">
      <path d="M 172.8 604.260298 
L 1244.16 604.260298 
" clip-path="url(#pa936419c6d)" style="fill: none; stroke: #b0b0b0; stroke-width: 0.8; stroke-linecap: square"/>
     </g>
     <g id="line2d_14">
      <defs>
       <path id="m5a8cf4157c" d="M 0 0 
L -3.5 0 
" style="stroke: #000000; stroke-width: 0.8"/>
      </defs>
      <g>
       <use xlink:href="#m5a8cf4157c" x="172.8" y="604.260298" style="stroke: #000000; stroke-width: 0.8"/>
      </g>
     </g>
     <g id="text_8">
      <!-- −50 -->
      <g transform="translate(144.695312 608.059517) scale(0.1 -0.1)">
       <defs>
        <path id="DejaVuSans-2212" d="M 678 2272 
L 4684 2272 
L 4684 1741 
L 678 1741 
L 678 2272 
z
" transform="scale(0.015625)"/>
        <path id="DejaVuSans-35" d="M 691 4666 
L 3169 4666 
L 3169 4134 
L 1269 4134 
L 1269 2991 
Q 1406 3038 1543 3061 
Q 1681 3084 1819 3084 
Q 2600 3084 3056 2656 
Q 3513 2228 3513 1497 
Q 3513 744 3044 326 
Q 2575 -91 1722 -91 
Q 1428 -91 1123 -41 
Q 819 9 494 109 
L 494 744 
Q 775 591 1075 516 
Q 1375 441 1709 441 
Q 2250 441 2565 725 
Q 2881 1009 2881 1497 
Q 2881 1984 2565 2268 
Q 2250 2553 1709 2553 
Q 1456 2553 1204 2497 
Q 953 2441 691 2322 
L 691 4666 
z
" transform="scale(0.015625)"/>
       </defs>
       <use xlink:href="#DejaVuSans-2212"/>
       <use xlink:href="#DejaVuSans-35" x="83.789062"/>
       <use xlink:href="#DejaVuSans-30" x="147.412109"/>
      </g>
     </g>
    </g>
    <g id="ytick_2">
     <g id="line2d_15">
      <path d="M 172.8 495.673212 
L 1244.16 495.673212 
" clip-path="url(#pa936419c6d)" style="fill: none; stroke: #b0b0b0; stroke-width: 0.8; stroke-linecap: square"/>
     </g>
     <g id="line2d_16">
      <g>
       <use xlink:href="#m5a8cf4157c" x="172.8" y="495.673212" style="stroke: #000000; stroke-width: 0.8"/>
      </g>
     </g>
     <g id="text_9">
      <!-- −40 -->
      <g transform="translate(144.695312 499.472431) scale(0.1 -0.1)">
       <defs>
        <path id="DejaVuSans-34" d="M 2419 4116 
L 825 1625 
L 2419 1625 
L 2419 4116 
z
M 2253 4666 
L 3047 4666 
L 3047 1625 
L 3713 1625 
L 3713 1100 
L 3047 1100 
L 3047 0 
L 2419 0 
L 2419 1100 
L 313 1100 
L 313 1709 
L 2253 4666 
z
" transform="scale(0.015625)"/>
       </defs>
       <use xlink:href="#DejaVuSans-2212"/>
       <use xlink:href="#DejaVuSans-34" x="83.789062"/>
       <use xlink:href="#DejaVuSans-30" x="147.412109"/>
      </g>
     </g>
    </g>
    <g id="ytick_3">
     <g id="line2d_17">
      <path d="M 172.8 387.086126 
L 1244.16 387.086126 
" clip-path="url(#pa936419c6d)" style="fill: none; stroke: #b0b0b0; stroke-width: 0.8; stroke-linecap: square"/>
     </g>
     <g id="line2d_18">
      <g>
       <use xlink:href="#m5a8cf4157c" x="172.8" y="387.086126" style="stroke: #000000; stroke-width: 0.8"/>
      </g>
     </g>
     <g id="text_10">
      <!-- −30 -->
      <g transform="translate(144.695312 390.885345) scale(0.1 -0.1)">
       <defs>
        <path id="DejaVuSans-33" d="M 2597 2516 
Q 3050 2419 3304 2112 
Q 3559 1806 3559 1356 
Q 3559 666 3084 287 
Q 2609 -91 1734 -91 
Q 1441 -91 1130 -33 
Q 819 25 488 141 
L 488 750 
Q 750 597 1062 519 
Q 1375 441 1716 441 
Q 2309 441 2620 675 
Q 2931 909 2931 1356 
Q 2931 1769 2642 2001 
Q 2353 2234 1838 2234 
L 1294 2234 
L 1294 2753 
L 1863 2753 
Q 2328 2753 2575 2939 
Q 2822 3125 2822 3475 
Q 2822 3834 2567 4026 
Q 2313 4219 1838 4219 
Q 1578 4219 1281 4162 
Q 984 4106 628 3988 
L 628 4550 
Q 988 4650 1302 4700 
Q 1616 4750 1894 4750 
Q 2613 4750 3031 4423 
Q 3450 4097 3450 3541 
Q 3450 3153 3228 2886 
Q 3006 2619 2597 2516 
z
" transform="scale(0.015625)"/>
       </defs>
       <use xlink:href="#DejaVuSans-2212"/>
       <use xlink:href="#DejaVuSans-33" x="83.789062"/>
       <use xlink:href="#DejaVuSans-30" x="147.412109"/>
      </g>
     </g>
    </g>
    <g id="ytick_4">
     <g id="line2d_19">
      <path d="M 172.8 278.49904 
L 1244.16 278.49904 
" clip-path="url(#pa936419c6d)" style="fill: none; stroke: #b0b0b0; stroke-width: 0.8; stroke-linecap: square"/>
     </g>
     <g id="line2d_20">
      <g>
       <use xlink:href="#m5a8cf4157c" x="172.8" y="278.49904" style="stroke: #000000; stroke-width: 0.8"/>
      </g>
     </g>
     <g id="text_11">
      <!-- −20 -->
      <g transform="translate(144.695312 282.298258) scale(0.1 -0.1)">
       <defs>
        <path id="DejaVuSans-32" d="M 1228 531 
L 3431 531 
L 3431 0 
L 469 0 
L 469 531 
Q 828 903 1448 1529 
Q 2069 2156 2228 2338 
Q 2531 2678 2651 2914 
Q 2772 3150 2772 3378 
Q 2772 3750 2511 3984 
Q 2250 4219 1831 4219 
Q 1534 4219 1204 4116 
Q 875 4013 500 3803 
L 500 4441 
Q 881 4594 1212 4672 
Q 1544 4750 1819 4750 
Q 2544 4750 2975 4387 
Q 3406 4025 3406 3419 
Q 3406 3131 3298 2873 
Q 3191 2616 2906 2266 
Q 2828 2175 2409 1742 
Q 1991 1309 1228 531 
z
" transform="scale(0.015625)"/>
       </defs>
       <use xlink:href="#DejaVuSans-2212"/>
       <use xlink:href="#DejaVuSans-32" x="83.789062"/>
       <use xlink:href="#DejaVuSans-30" x="147.412109"/>
      </g>
     </g>
    </g>
    <g id="ytick_5">
     <g id="line2d_21">
      <path d="M 172.8 169.911953 
L 1244.16 169.911953 
" clip-path="url(#pa936419c6d)" style="fill: none; stroke: #b0b0b0; stroke-width: 0.8; stroke-linecap: square"/>
     </g>
     <g id="line2d_22">
      <g>
       <use xlink:href="#m5a8cf4157c" x="172.8" y="169.911953" style="stroke: #000000; stroke-width: 0.8"/>
      </g>
     </g>
     <g id="text_12">
      <!-- −10 -->
      <g transform="translate(144.695312 173.711172) scale(0.1 -0.1)">
       <use xlink:href="#DejaVuSans-2212"/>
       <use xlink:href="#DejaVuSans-31" x="83.789062"/>
       <use xlink:href="#DejaVuSans-30" x="147.412109"/>
      </g>
     </g>
    </g>
    <g id="text_13">
     <!-- S21 in dB -->
     <g transform="translate(137.78375 387.938281) rotate(-90) scale(0.14 -0.14)">
      <defs>
       <path id="DejaVuSans-53" d="M 3425 4513 
L 3425 3897 
Q 3066 4069 2747 4153 
Q 2428 4238 2131 4238 
Q 1616 4238 1336 4038 
Q 1056 3838 1056 3469 
Q 1056 3159 1242 3001 
Q 1428 2844 1947 2747 
L 2328 2669 
Q 3034 2534 3370 2195 
Q 3706 1856 3706 1288 
Q 3706 609 3251 259 
Q 2797 -91 1919 -91 
Q 1588 -91 1214 -16 
Q 841 59 441 206 
L 441 856 
Q 825 641 1194 531 
Q 1563 422 1919 422 
Q 2459 422 2753 634 
Q 3047 847 3047 1241 
Q 3047 1584 2836 1778 
Q 2625 1972 2144 2069 
L 1759 2144 
Q 1053 2284 737 2584 
Q 422 2884 422 3419 
Q 422 4038 858 4394 
Q 1294 4750 2059 4750 
Q 2388 4750 2728 4690 
Q 3069 4631 3425 4513 
z
" transform="scale(0.015625)"/>
       <path id="DejaVuSans-64" d="M 2906 2969 
L 2906 4863 
L 3481 4863 
L 3481 0 
L 2906 0 
L 2906 525 
Q 2725 213 2448 61 
Q 2172 -91 1784 -91 
Q 1150 -91 751 415 
Q 353 922 353 1747 
Q 353 2572 751 3078 
Q 1150 3584 1784 3584 
Q 2172 3584 2448 3432 
Q 2725 3281 2906 2969 
z
M 947 1747 
Q 947 1113 1208 752 
Q 1469 391 1925 391 
Q 2381 391 2643 752 
Q 2906 1113 2906 1747 
Q 2906 2381 2643 2742 
Q 2381 3103 1925 3103 
Q 1469 3103 1208 2742 
Q 947 2381 947 1747 
z
" transform="scale(0.015625)"/>
       <path id="DejaVuSans-42" d="M 1259 2228 
L 1259 519 
L 2272 519 
Q 2781 519 3026 730 
Q 3272 941 3272 1375 
Q 3272 1813 3026 2020 
Q 2781 2228 2272 2228 
L 1259 2228 
z
M 1259 4147 
L 1259 2741 
L 2194 2741 
Q 2656 2741 2882 2914 
Q 3109 3088 3109 3444 
Q 3109 3797 2882 3972 
Q 2656 4147 2194 4147 
L 1259 4147 
z
M 628 4666 
L 2241 4666 
Q 2963 4666 3353 4366 
Q 3744 4066 3744 3513 
Q 3744 3084 3544 2831 
Q 3344 2578 2956 2516 
Q 3422 2416 3680 2098 
Q 3938 1781 3938 1306 
Q 3938 681 3513 340 
Q 3088 0 2303 0 
L 628 0 
L 628 4666 
z
" transform="scale(0.015625)"/>
      </defs>
      <use xlink:href="#DejaVuSans-53"/>
      <use xlink:href="#DejaVuSans-32" x="63.476562"/>
      <use xlink:href="#DejaVuSans-31" x="127.099609"/>
      <use xlink:href="#DejaVuSans-20" x="190.722656"/>
      <use xlink:href="#DejaVuSans-69" x="222.509766"/>
      <use xlink:href="#DejaVuSans-6e" x="250.292969"/>
      <use xlink:href="#DejaVuSans-20" x="313.671875"/>
      <use xlink:href="#DejaVuSans-64" x="345.458984"/>
      <use xlink:href="#DejaVuSans-42" x="408.935547"/>
     </g>
    </g>
   </g>
   <g id="line2d_23">
    <path d="M 221.498182 198.69839 
L 231.237818 186.330321 
L 240.977455 186.362897 
L 250.717091 190.70638 
L 260.456727 207.569955 
L 270.196364 216.973597 
L 279.936 205.495942 
L 289.675636 194.952136 
L 299.415273 199.219608 
L 309.154909 206.364638 
L 318.894545 215.594541 
L 328.634182 204.953006 
L 338.373818 202.325199 
L 348.113455 202.498938 
L 357.853091 207.27677 
L 367.592727 208.753554 
L 377.332364 205.810844 
L 387.072 200.153457 
L 396.811636 203.736831 
L 406.551273 195.951137 
L 416.290909 193.855406 
L 426.030545 193.692525 
L 435.770182 195.104157 
L 445.509818 206.668682 
L 455.249455 209.730838 
L 464.989091 195.516788 
L 474.728727 187.492203 
L 484.468364 193.942276 
L 494.208 201.586806 
L 503.947636 204.431788 
L 513.687273 195.581941 
L 523.426909 189.229596 
L 533.166545 198.122878 
L 542.906182 204.138603 
L 552.645818 205.84342 
L 562.385455 198.372629 
L 572.125091 184.288884 
L 581.864727 189.522781 
L 591.604364 193.355905 
L 601.344 196.298615 
L 611.083636 202.368633 
L 620.823273 193.909699 
L 630.562909 189.913695 
L 640.302545 188.143725 
L 650.042182 185.211874 
L 659.781818 190.934413 
L 669.521455 195.560223 
L 679.261091 200.88099 
L 689.000727 198.133737 
L 698.740364 187.155583 
L 708.48 190.836685 
L 718.219636 195.864267 
L 727.959273 213.433658 
L 737.698909 217.060466 
L 747.438545 197.786258 
L 757.178182 191.944273 
L 766.917818 195.983713 
L 776.657455 207.10303 
L 786.397091 226.583554 
L 796.136727 216.137476 
L 805.876364 207.092172 
L 815.616 206.614389 
L 825.355636 204.410071 
L 835.095273 212.315211 
L 844.834909 215.866008 
L 854.574545 216.843292 
L 864.314182 219.579687 
L 874.053818 213.868006 
L 883.793455 210.056599 
L 893.533091 206.397214 
L 903.272727 213.227342 
L 913.012364 231.730582 
L 922.752 224.50954 
L 932.491636 209.372501 
L 942.231273 207.504803 
L 951.970909 206.538378 
L 961.710545 231.676288 
L 971.450182 244.087792 
L 981.189818 219.112762 
L 990.929455 208.95987 
L 1000.669091 210.979589 
L 1010.408727 219.492817 
L 1020.148364 241.861757 
L 1029.888 233.739443 
L 1039.627636 222.761288 
L 1049.367273 233.902323 
L 1059.106909 235.313955 
L 1068.846545 242.545855 
L 1078.586182 242.828182 
L 1088.325818 232.566702 
L 1098.065455 238.321818 
L 1107.805091 239.027634 
L 1117.544727 243.3494 
L 1127.284364 247.171665 
L 1137.024 235.998054 
L 1146.763636 242.08979 
L 1156.503273 237.37711 
L 1166.242909 217.299358 
L 1175.982545 222.381233 
L 1185.722182 223.282506 
L 1195.461818 234.77102 
" clip-path="url(#pa936419c6d)" style="fill: none; stroke: #1f77b4; stroke-width: 3; stroke-linecap: square"/>
   </g>
   <g id="line2d_24">
    <path d="M 221.498182 347.994775 
L 231.237818 361.15553 
L 240.977455 466.951928 
L 250.717091 448.003481 
L 260.456727 350.003636 
L 270.196364 324.007887 
L 279.936 324.811432 
L 289.675636 369.516735 
L 299.415273 448.057775 
L 309.154909 358.03908 
L 318.894545 319.642687 
L 328.634182 303.582657 
L 338.373818 324.083898 
L 348.113455 349.091504 
L 357.853091 352.935487 
L 367.592727 358.962071 
L 377.332364 350.112223 
L 387.072 337.494404 
L 396.811636 343.99877 
L 406.551273 338.558557 
L 416.290909 345.909903 
L 426.030545 370.537454 
L 435.770182 420.997873 
L 445.509818 434.962172 
L 455.249455 364.880067 
L 464.989091 341.001766 
L 474.728727 354.672881 
L 484.468364 431.53082 
L 494.208 457.26596 
L 503.947636 370.179117 
L 513.687273 341.81617 
L 523.426909 353.728173 
L 533.166545 398.498629 
L 542.906182 600.21 
L 552.645818 456.212665 
L 562.385455 396.815529 
L 572.125091 389.670499 
L 581.864727 433.767714 
L 591.604364 561.629008 
L 601.344 538.82572 
L 611.083636 501.232871 
L 620.823273 445.842598 
L 630.562909 410.084871 
L 640.302545 409.183598 
L 650.042182 415.318768 
L 659.781818 456.972775 
L 669.521455 549.011189 
L 679.261091 424.222909 
L 689.000727 374.913514 
L 698.740364 373.024098 
L 708.48 400.876686 
L 718.219636 421.877428 
L 727.959273 380.201705 
L 737.698909 350.774604 
L 747.438545 346.387686 
L 757.178182 393.818525 
L 766.917818 558.75145 
L 776.657455 412.690961 
L 786.397091 361.644172 
L 796.136727 343.010628 
L 805.876364 354.216815 
L 815.616 388.128562 
L 825.355636 404.340614 
L 835.095273 384.078264 
L 844.834909 373.143544 
L 854.574545 371.069531 
L 864.314182 374.044817 
L 874.053818 355.552436 
L 883.793455 344.443977 
L 893.533091 367.507874 
L 903.272727 422.854712 
L 913.012364 406.327758 
L 922.752 350.394549 
L 932.491636 320.967449 
L 942.231273 332.293082 
L 951.970909 372.361717 
L 961.710545 553.484977 
L 971.450182 381.385304 
L 981.189818 321.760135 
L 990.929455 313.637821 
L 1000.669091 337.722436 
L 1010.408727 422.53981 
L 1020.148364 424.190333 
L 1029.888 350.970061 
L 1039.627636 326.711706 
L 1049.367273 341.837887 
L 1059.106909 352.653161 
L 1068.846545 382.080261 
L 1078.586182 391.071272 
L 1088.325818 362.013368 
L 1098.065455 355.552436 
L 1107.805091 361.15553 
L 1117.544727 372.34 
L 1127.284364 388.465182 
L 1137.024 393.61221 
L 1146.763636 439.283938 
L 1156.503273 416.773835 
L 1166.242909 356.931492 
L 1175.982545 340.936614 
L 1185.722182 348.776602 
L 1195.461818 408.91213 
" clip-path="url(#pa936419c6d)" style="fill: none; stroke: #ff7f0e; stroke-width: 3; stroke-linecap: square"/>
   </g>
   <g id="line2d_25">
    <path d="M 221.498182 119.999899 
L 231.237818 111.471469 
L 240.977455 108.922931 
L 250.717091 112.99386 
L 260.456727 122.657025 
L 270.196364 128.676007 
L 279.936 122.604903 
L 289.675636 123.74724 
L 299.415273 112.623578 
L 309.154909 113.765915 
L 318.894545 123.079429 
L 328.634182 112.106704 
L 338.373818 124.113178 
L 348.113455 126.818082 
L 357.853091 115.683563 
L 367.592727 128.527243 
L 377.332364 119.376609 
L 387.072 110.253122 
L 396.811636 131.235405 
L 406.551273 119.52646 
L 416.290909 118.613242 
L 426.030545 124.17833 
L 435.770182 111.271669 
L 445.509818 124.663715 
L 455.249455 131.370053 
L 464.989091 124.042596 
L 474.728727 133.350681 
L 484.468364 115.214466 
L 494.208 108.81 
L 503.947636 129.184195 
L 513.687273 120.529804 
L 523.426909 129.343818 
L 533.166545 142.17664 
L 542.906182 118.258162 
L 552.645818 123.450797 
L 562.385455 126.705152 
L 572.125091 113.744197 
L 581.864727 129.827031 
L 591.604364 125.747414 
L 601.344 128.465348 
L 611.083636 140.814958 
L 620.823273 122.777557 
L 630.562909 120.63079 
L 640.302545 124.175073 
L 650.042182 122.094544 
L 659.781818 139.558605 
L 669.521455 128.929015 
L 679.261091 122.292173 
L 689.000727 123.817821 
L 698.740364 117.150574 
L 708.48 136.105536 
L 718.219636 139.381608 
L 727.959273 125.648599 
L 737.698909 130.612115 
L 747.438545 120.868596 
L 757.178182 122.285657 
L 766.917818 133.004289 
L 776.657455 127.062403 
L 786.397091 132.321276 
L 796.136727 138.580236 
L 805.876364 131.735992 
L 815.616 129.243918 
L 825.355636 124.35207 
L 835.095273 123.650597 
L 844.834909 126.368532 
L 854.574545 129.766222 
L 864.314182 139.661763 
L 874.053818 134.33991 
L 883.793455 123.948126 
L 893.533091 130.093069 
L 903.272727 127.441372 
L 913.012364 130.184282 
L 922.752 133.123734 
L 932.491636 123.645168 
L 942.231273 125.79845 
L 951.970909 132.477641 
L 961.710545 132.727392 
L 971.450182 138.985265 
L 981.189818 132.278927 
L 990.929455 126.221939 
L 1000.669091 124.697377 
L 1010.408727 128.197138 
L 1020.148364 134.506048 
L 1029.888 127.660718 
L 1039.627636 131.334219 
L 1049.367273 142.930234 
L 1059.106909 129.370965 
L 1068.846545 136.930798 
L 1078.586182 133.754625 
L 1088.325818 115.732427 
L 1098.065455 131.332048 
L 1107.805091 139.120999 
L 1117.544727 131.499272 
L 1127.284364 144.920636 
L 1137.024 133.507047 
L 1146.763636 127.535843 
L 1156.503273 135.333482 
L 1166.242909 126.857174 
L 1175.982545 129.397026 
L 1185.722182 134.988175 
L 1195.461818 131.048635 
" clip-path="url(#pa936419c6d)" style="fill: none; stroke: #2ca02c; stroke-width: 3; stroke-linecap: square"/>
   </g>
   <g id="line2d_26">
    <path d="M 221.498182 156.867387 
L 231.237818 156.320108 
L 240.977455 156.860872 
L 250.717091 158.210609 
L 260.456727 168.755501 
L 270.196364 179.619639 
L 279.936 179.500193 
L 289.675636 179.641356 
L 299.415273 182.377751 
L 309.154909 183.680796 
L 318.894545 188.252312 
L 328.634182 190.728098 
L 338.373818 195.321332 
L 348.113455 209.774273 
L 357.853091 215.257921 
L 367.592727 220.795862 
L 377.332364 232.284376 
L 387.072 236.693011 
L 396.811636 241.373115 
L 406.551273 242.241812 
L 416.290909 245.466848 
L 426.030545 264.741056 
L 435.770182 272.461598 
L 445.509818 276.099265 
L 455.249455 290.161293 
L 464.989091 285.459472 
L 474.728727 281.387456 
L 484.468364 281.756652 
L 494.208 258.660179 
L 503.947636 248.452993 
L 513.687273 244.413553 
L 523.426909 233.804595 
L 533.166545 230.90532 
L 542.906182 225.497683 
L 552.645818 214.693268 
L 562.385455 210.577817 
L 572.125091 203.020156 
L 581.864727 198.926423 
L 591.604364 199.664815 
L 601.344 193.258177 
L 611.083636 182.63836 
L 620.823273 176.210004 
L 630.562909 178.218866 
L 640.302545 171.497325 
L 650.042182 167.112578 
L 659.781818 174.30973 
L 669.521455 171.801369 
L 679.261091 164.484771 
L 689.000727 157.988005 
L 698.740364 152.428347 
L 708.48 155.624065 
L 718.219636 153.382827 
L 727.959273 151.484725 
L 737.698909 161.418272 
L 747.438545 159.260646 
L 757.178182 153.209088 
L 766.917818 148.965504 
L 776.657455 145.636224 
L 786.397091 147.075003 
L 796.136727 150.348904 
L 805.876364 154.139679 
L 815.616 160.272678 
L 825.355636 157.206178 
L 835.095273 152.000514 
L 844.834909 150.962421 
L 854.574545 150.637746 
L 864.314182 157.829468 
L 874.053818 158.662331 
L 883.793455 155.872729 
L 893.533091 166.028879 
L 903.272727 164.746466 
L 913.012364 159.055417 
L 922.752 168.49815 
L 932.491636 171.193281 
L 942.231273 171.605912 
L 951.970909 174.537763 
L 961.710545 174.429176 
L 971.450182 179.988835 
L 981.189818 190.434913 
L 990.929455 194.116015 
L 1000.669091 196.483213 
L 1010.408727 195.353908 
L 1020.148364 201.195893 
L 1029.888 208.753554 
L 1039.627636 208.949011 
L 1049.367273 218.721849 
L 1059.106909 233.782878 
L 1068.846545 238.38697 
L 1078.586182 243.555715 
L 1088.325818 250.624735 
L 1098.065455 256.358133 
L 1107.805091 264.62161 
L 1117.544727 263.8615 
L 1127.284364 271.962097 
L 1137.024 302.355622 
L 1146.763636 306.395062 
L 1156.503273 297.66466 
L 1166.242909 307.263759 
L 1175.982545 298.815683 
L 1185.722182 287.055702 
L 1195.461818 293.777243 
" clip-path="url(#pa936419c6d)" style="fill: none; stroke: #d62728; stroke-width: 3; stroke-linecap: square"/>
   </g>
   <g id="line2d_27">
    <path d="M 221.498182 177.849669 
L 231.237818 180.672934 
L 240.977455 178.240583 
L 250.717091 173.38674 
L 260.456727 178.273159 
L 270.196364 179.152714 
L 279.936 171.171564 
L 289.675636 172.995827 
L 299.415273 175.764797 
L 309.154909 175.677928 
L 318.894545 172.691783 
L 328.634182 166.319893 
L 338.373818 165.30026 
L 348.113455 168.431911 
L 357.853091 163.923376 
L 367.592727 166.072314 
L 377.332364 169.787078 
L 387.072 168.215823 
L 396.811636 164.343608 
L 406.551273 160.092423 
L 416.290909 159.940401 
L 426.030545 162.681139 
L 435.770182 161.612642 
L 445.509818 162.714801 
L 455.249455 163.161094 
L 464.989091 159.026098 
L 474.728727 156.173515 
L 484.468364 157.180118 
L 494.208 158.680791 
L 503.947636 157.24527 
L 513.687273 154.145108 
L 523.426909 157.471131 
L 533.166545 157.503707 
L 542.906182 151.539018 
L 552.645818 154.127735 
L 562.385455 157.917424 
L 572.125091 150.930931 
L 581.864727 151.074266 
L 591.604364 155.135423 
L 601.344 153.382827 
L 611.083636 152.758451 
L 620.823273 153.212345 
L 630.562909 155.586059 
L 640.302545 150.735474 
L 650.042182 145.963072 
L 659.781818 150.639917 
L 669.521455 153.525076 
L 679.261091 152.601 
L 689.000727 149.219598 
L 698.740364 145.966329 
L 708.48 148.965504 
L 718.219636 146.700378 
L 727.959273 143.487286 
L 737.698909 152.374053 
L 747.438545 153.239492 
L 757.178182 149.519299 
L 766.917818 147.608166 
L 776.657455 145.877288 
L 786.397091 146.789419 
L 796.136727 147.158615 
L 805.876364 146.566816 
L 815.616 151.238232 
L 825.355636 149.520384 
L 835.095273 147.03917 
L 844.834909 148.838458 
L 854.574545 147.72544 
L 864.314182 150.246832 
L 874.053818 148.992651 
L 883.793455 142.220075 
L 893.533091 151.079695 
L 903.272727 149.496495 
L 913.012364 140.903999 
L 922.752 151.207828 
L 932.491636 153.267725 
L 942.231273 148.833028 
L 951.970909 151.724702 
L 961.710545 149.632229 
L 971.450182 148.654945 
L 981.189818 151.955993 
L 990.929455 149.794024 
L 1000.669091 150.189281 
L 1010.408727 149.267377 
L 1020.148364 151.997256 
L 1029.888 154.944309 
L 1039.627636 152.614031 
L 1049.367273 154.344909 
L 1059.106909 153.312246 
L 1068.846545 149.65829 
L 1078.586182 152.56951 
L 1088.325818 153.304644 
L 1098.065455 154.916077 
L 1107.805091 159.250873 
L 1117.544727 156.043211 
L 1127.284364 154.566426 
L 1137.024 158.522254 
L 1146.763636 155.250525 
L 1156.503273 153.001686 
L 1166.242909 162.137118 
L 1175.982545 161.907999 
L 1185.722182 153.798716 
L 1195.461818 157.960859 
" clip-path="url(#pa936419c6d)" style="fill: none; stroke: #9467bd; stroke-width: 3; stroke-linecap: square"/>
   </g>
   <g id="line2d_28">
    <path d="M 221.498182 418.315772 
L 231.237818 364.087381 
L 240.977455 345.149793 
L 250.717091 375.999384 
L 260.456727 427.773707 
L 270.196364 434.592976 
L 279.936 361.503008 
L 289.675636 428.403512 
L 299.415273 445.755729 
L 309.154909 358.788331 
L 318.894545 357.159525 
L 328.634182 406.078007 
L 338.373818 510.766817 
L 348.113455 548.403101 
L 357.853091 393.623068 
L 367.592727 328.764002 
L 377.332364 327.439239 
L 387.072 328.959459 
L 396.811636 324.290214 
L 406.551273 324.583399 
L 416.290909 305.721822 
L 426.030545 328.655415 
L 435.770182 358.299689 
L 445.509818 322.72656 
L 455.249455 296.926268 
L 464.989091 269.812073 
L 474.728727 258.519016 
L 484.468364 281.756652 
L 494.208 283.396317 
L 503.947636 286.925398 
L 513.687273 275.578047 
L 523.426909 269.518888 
L 533.166545 277.999539 
L 542.906182 257.541732 
L 552.645818 251.569442 
L 562.385455 244.239814 
L 572.125091 231.502549 
L 581.864727 258.290983 
L 591.604364 260.050094 
L 601.344 248.148949 
L 611.083636 249.071939 
L 620.823273 236.160935 
L 630.562909 236.464979 
L 640.302545 241.557713 
L 650.042182 225.139345 
L 659.781818 219.025893 
L 669.521455 216.246063 
L 679.261091 233.706867 
L 689.000727 244.152944 
L 698.740364 230.069199 
L 708.48 225.823444 
L 718.219636 209.513664 
L 727.959273 204.638104 
L 737.698909 220.98046 
L 747.438545 214.986453 
L 757.178182 210.447513 
L 766.917818 223.195637 
L 776.657455 213.021027 
L 786.397091 213.99831 
L 796.136727 214.997312 
L 805.876364 194.387483 
L 815.616 195.679669 
L 825.355636 205.072452 
L 835.095273 205.767409 
L 844.834909 209.470229 
L 854.574545 203.367635 
L 864.314182 198.133737 
L 874.053818 195.310473 
L 883.793455 198.11202 
L 893.533091 203.812842 
L 903.272727 186.612647 
L 913.012364 184.896971 
L 922.752 195.473354 
L 932.491636 194.452635 
L 942.231273 202.585808 
L 951.970909 198.057726 
L 961.710545 178.175431 
L 971.450182 184.191155 
L 981.189818 188.198019 
L 990.929455 183.485339 
L 1000.669091 182.909828 
L 1010.408727 184.288884 
L 1020.148364 178.664073 
L 1029.888 185.15758 
L 1039.627636 192.422056 
L 1049.367273 180.11914 
L 1059.106909 176.144852 
L 1068.846545 178.153713 
L 1078.586182 173.799371 
L 1088.325818 181.052988 
L 1098.065455 186.069712 
L 1107.805091 183.268165 
L 1117.544727 182.670936 
L 1127.284364 178.805236 
L 1137.024 179.10928 
L 1146.763636 174.244578 
L 1156.503273 176.351168 
L 1166.242909 179.869389 
L 1175.982545 173.755936 
L 1185.722182 186.297745 
L 1195.461818 184.202014 
" clip-path="url(#pa936419c6d)" style="fill: none; stroke: #8c564b; stroke-width: 3; stroke-linecap: square"/>
   </g>
   <g id="patch_3">
    <path d="M 172.8 624.78 
L 172.8 84.24 
" style="fill: none; stroke: #000000; stroke-width: 0.8; stroke-linejoin: miter; stroke-linecap: square"/>
   </g>
   <g id="patch_4">
    <path d="M 1244.16 624.78 
L 1244.16 84.24 
" style="fill: none; stroke: #000000; stroke-width: 0.8; stroke-linejoin: miter; stroke-linecap: square"/>
   </g>
   <g id="patch_5">
    <path d="M 172.8 624.78 
L 1244.16 624.78 
" style="fill: none; stroke: #000000; stroke-width: 0.8; stroke-linejoin: miter; stroke-linecap: square"/>
   </g>
   <g id="patch_6">
    <path d="M 172.8 84.24 
L 1244.16 84.24 
" style="fill: none; stroke: #000000; stroke-width: 0.8; stroke-linejoin: miter; stroke-linecap: square"/>
   </g>
   <g id="text_14">
    <!-- Reflectivity Com at 76-81 GHz Scan angle=-10 Deg -->
    <g transform="translate(450.959687 78.24) scale(0.2 -0.2)">
     <defs>
      <path id="DejaVuSans-52" d="M 2841 2188 
Q 3044 2119 3236 1894 
Q 3428 1669 3622 1275 
L 4263 0 
L 3584 0 
L 2988 1197 
Q 2756 1666 2539 1819 
Q 2322 1972 1947 1972 
L 1259 1972 
L 1259 0 
L 628 0 
L 628 4666 
L 2053 4666 
Q 2853 4666 3247 4331 
Q 3641 3997 3641 3322 
Q 3641 2881 3436 2590 
Q 3231 2300 2841 2188 
z
M 1259 4147 
L 1259 2491 
L 2053 2491 
Q 2509 2491 2742 2702 
Q 2975 2913 2975 3322 
Q 2975 3731 2742 3939 
Q 2509 4147 2053 4147 
L 1259 4147 
z
" transform="scale(0.015625)"/>
      <path id="DejaVuSans-66" d="M 2375 4863 
L 2375 4384 
L 1825 4384 
Q 1516 4384 1395 4259 
Q 1275 4134 1275 3809 
L 1275 3500 
L 2222 3500 
L 2222 3053 
L 1275 3053 
L 1275 0 
L 697 0 
L 697 3053 
L 147 3053 
L 147 3500 
L 697 3500 
L 697 3744 
Q 697 4328 969 4595 
Q 1241 4863 1831 4863 
L 2375 4863 
z
" transform="scale(0.015625)"/>
      <path id="DejaVuSans-6c" d="M 603 4863 
L 1178 4863 
L 1178 0 
L 603 0 
L 603 4863 
z
" transform="scale(0.015625)"/>
      <path id="DejaVuSans-74" d="M 1172 4494 
L 1172 3500 
L 2356 3500 
L 2356 3053 
L 1172 3053 
L 1172 1153 
Q 1172 725 1289 603 
Q 1406 481 1766 481 
L 2356 481 
L 2356 0 
L 1766 0 
Q 1100 0 847 248 
Q 594 497 594 1153 
L 594 3053 
L 172 3053 
L 172 3500 
L 594 3500 
L 594 4494 
L 1172 4494 
z
" transform="scale(0.015625)"/>
      <path id="DejaVuSans-76" d="M 191 3500 
L 800 3500 
L 1894 563 
L 2988 3500 
L 3597 3500 
L 2284 0 
L 1503 0 
L 191 3500 
z
" transform="scale(0.015625)"/>
      <path id="DejaVuSans-43" d="M 4122 4306 
L 4122 3641 
Q 3803 3938 3442 4084 
Q 3081 4231 2675 4231 
Q 1875 4231 1450 3742 
Q 1025 3253 1025 2328 
Q 1025 1406 1450 917 
Q 1875 428 2675 428 
Q 3081 428 3442 575 
Q 3803 722 4122 1019 
L 4122 359 
Q 3791 134 3420 21 
Q 3050 -91 2638 -91 
Q 1578 -91 968 557 
Q 359 1206 359 2328 
Q 359 3453 968 4101 
Q 1578 4750 2638 4750 
Q 3056 4750 3426 4639 
Q 3797 4528 4122 4306 
z
" transform="scale(0.015625)"/>
      <path id="DejaVuSans-6f" d="M 1959 3097 
Q 1497 3097 1228 2736 
Q 959 2375 959 1747 
Q 959 1119 1226 758 
Q 1494 397 1959 397 
Q 2419 397 2687 759 
Q 2956 1122 2956 1747 
Q 2956 2369 2687 2733 
Q 2419 3097 1959 3097 
z
M 1959 3584 
Q 2709 3584 3137 3096 
Q 3566 2609 3566 1747 
Q 3566 888 3137 398 
Q 2709 -91 1959 -91 
Q 1206 -91 779 398 
Q 353 888 353 1747 
Q 353 2609 779 3096 
Q 1206 3584 1959 3584 
z
" transform="scale(0.015625)"/>
      <path id="DejaVuSans-6d" d="M 3328 2828 
Q 3544 3216 3844 3400 
Q 4144 3584 4550 3584 
Q 5097 3584 5394 3201 
Q 5691 2819 5691 2113 
L 5691 0 
L 5113 0 
L 5113 2094 
Q 5113 2597 4934 2840 
Q 4756 3084 4391 3084 
Q 3944 3084 3684 2787 
Q 3425 2491 3425 1978 
L 3425 0 
L 2847 0 
L 2847 2094 
Q 2847 2600 2669 2842 
Q 2491 3084 2119 3084 
Q 1678 3084 1418 2786 
Q 1159 2488 1159 1978 
L 1159 0 
L 581 0 
L 581 3500 
L 1159 3500 
L 1159 2956 
Q 1356 3278 1631 3431 
Q 1906 3584 2284 3584 
Q 2666 3584 2933 3390 
Q 3200 3197 3328 2828 
z
" transform="scale(0.015625)"/>
      <path id="DejaVuSans-61" d="M 2194 1759 
Q 1497 1759 1228 1600 
Q 959 1441 959 1056 
Q 959 750 1161 570 
Q 1363 391 1709 391 
Q 2188 391 2477 730 
Q 2766 1069 2766 1631 
L 2766 1759 
L 2194 1759 
z
M 3341 1997 
L 3341 0 
L 2766 0 
L 2766 531 
Q 2569 213 2275 61 
Q 1981 -91 1556 -91 
Q 1019 -91 701 211 
Q 384 513 384 1019 
Q 384 1609 779 1909 
Q 1175 2209 1959 2209 
L 2766 2209 
L 2766 2266 
Q 2766 2663 2505 2880 
Q 2244 3097 1772 3097 
Q 1472 3097 1187 3025 
Q 903 2953 641 2809 
L 641 3341 
Q 956 3463 1253 3523 
Q 1550 3584 1831 3584 
Q 2591 3584 2966 3190 
Q 3341 2797 3341 1997 
z
" transform="scale(0.015625)"/>
      <path id="DejaVuSans-2d" d="M 313 2009 
L 1997 2009 
L 1997 1497 
L 313 1497 
L 313 2009 
z
" transform="scale(0.015625)"/>
      <path id="DejaVuSans-67" d="M 2906 1791 
Q 2906 2416 2648 2759 
Q 2391 3103 1925 3103 
Q 1463 3103 1205 2759 
Q 947 2416 947 1791 
Q 947 1169 1205 825 
Q 1463 481 1925 481 
Q 2391 481 2648 825 
Q 2906 1169 2906 1791 
z
M 3481 434 
Q 3481 -459 3084 -895 
Q 2688 -1331 1869 -1331 
Q 1566 -1331 1297 -1286 
Q 1028 -1241 775 -1147 
L 775 -588 
Q 1028 -725 1275 -790 
Q 1522 -856 1778 -856 
Q 2344 -856 2625 -561 
Q 2906 -266 2906 331 
L 2906 616 
Q 2728 306 2450 153 
Q 2172 0 1784 0 
Q 1141 0 747 490 
Q 353 981 353 1791 
Q 353 2603 747 3093 
Q 1141 3584 1784 3584 
Q 2172 3584 2450 3431 
Q 2728 3278 2906 2969 
L 2906 3500 
L 3481 3500 
L 3481 434 
z
" transform="scale(0.015625)"/>
      <path id="DejaVuSans-3d" d="M 678 2906 
L 4684 2906 
L 4684 2381 
L 678 2381 
L 678 2906 
z
M 678 1631 
L 4684 1631 
L 4684 1100 
L 678 1100 
L 678 1631 
z
" transform="scale(0.015625)"/>
      <path id="DejaVuSans-44" d="M 1259 4147 
L 1259 519 
L 2022 519 
Q 2988 519 3436 956 
Q 3884 1394 3884 2338 
Q 3884 3275 3436 3711 
Q 2988 4147 2022 4147 
L 1259 4147 
z
M 628 4666 
L 1925 4666 
Q 3281 4666 3915 4102 
Q 4550 3538 4550 2338 
Q 4550 1131 3912 565 
Q 3275 0 1925 0 
L 628 0 
L 628 4666 
z
" transform="scale(0.015625)"/>
     </defs>
     <use xlink:href="#DejaVuSans-52"/>
     <use xlink:href="#DejaVuSans-65" x="64.982422"/>
     <use xlink:href="#DejaVuSans-66" x="126.505859"/>
     <use xlink:href="#DejaVuSans-6c" x="161.710938"/>
     <use xlink:href="#DejaVuSans-65" x="189.494141"/>
     <use xlink:href="#DejaVuSans-63" x="251.017578"/>
     <use xlink:href="#DejaVuSans-74" x="305.998047"/>
     <use xlink:href="#DejaVuSans-69" x="345.207031"/>
     <use xlink:href="#DejaVuSans-76" x="372.990234"/>
     <use xlink:href="#DejaVuSans-69" x="432.169922"/>
     <use xlink:href="#DejaVuSans-74" x="459.953125"/>
     <use xlink:href="#DejaVuSans-79" x="499.162109"/>
     <use xlink:href="#DejaVuSans-20" x="558.341797"/>
     <use xlink:href="#DejaVuSans-43" x="590.128906"/>
     <use xlink:href="#DejaVuSans-6f" x="659.953125"/>
     <use xlink:href="#DejaVuSans-6d" x="721.134766"/>
     <use xlink:href="#DejaVuSans-20" x="818.546875"/>
     <use xlink:href="#DejaVuSans-61" x="850.333984"/>
     <use xlink:href="#DejaVuSans-74" x="911.613281"/>
     <use xlink:href="#DejaVuSans-20" x="950.822266"/>
     <use xlink:href="#DejaVuSans-37" x="982.609375"/>
     <use xlink:href="#DejaVuSans-36" x="1046.232422"/>
     <use xlink:href="#DejaVuSans-2d" x="1109.855469"/>
     <use xlink:href="#DejaVuSans-38" x="1145.939453"/>
     <use xlink:href="#DejaVuSans-31" x="1209.5625"/>
     <use xlink:href="#DejaVuSans-20" x="1273.185547"/>
     <use xlink:href="#DejaVuSans-47" x="1304.972656"/>
     <use xlink:href="#DejaVuSans-48" x="1382.462891"/>
     <use xlink:href="#DejaVuSans-7a" x="1457.658203"/>
     <use xlink:href="#DejaVuSans-20" x="1510.148438"/>
     <use xlink:href="#DejaVuSans-53" x="1541.935547"/>
     <use xlink:href="#DejaVuSans-63" x="1605.412109"/>
     <use xlink:href="#DejaVuSans-61" x="1660.392578"/>
     <use xlink:href="#DejaVuSans-6e" x="1721.671875"/>
     <use xlink:href="#DejaVuSans-20" x="1785.050781"/>
     <use xlink:href="#DejaVuSans-61" x="1816.837891"/>
     <use xlink:href="#DejaVuSans-6e" x="1878.117188"/>
     <use xlink:href="#DejaVuSans-67" x="1941.496094"/>
     <use xlink:href="#DejaVuSans-6c" x="2004.972656"/>
     <use xlink:href="#DejaVuSans-65" x="2032.755859"/>
     <use xlink:href="#DejaVuSans-3d" x="2094.279297"/>
     <use xlink:href="#DejaVuSans-2d" x="2178.068359"/>
     <use xlink:href="#DejaVuSans-31" x="2214.152344"/>
     <use xlink:href="#DejaVuSans-30" x="2277.775391"/>
     <use xlink:href="#DejaVuSans-20" x="2341.398438"/>
     <use xlink:href="#DejaVuSans-44" x="2373.185547"/>
     <use xlink:href="#DejaVuSans-65" x="2450.1875"/>
     <use xlink:href="#DejaVuSans-67" x="2511.710938"/>
    </g>
   </g>
   <g id="legend_1">
    <g id="patch_7">
     <path d="M 183.2 620.78 
L 320.72375 620.78 
Q 323.12375 620.78 323.12375 618.38 
L 323.12375 513.8975 
Q 323.12375 511.4975 320.72375 511.4975 
L 183.2 511.4975 
Q 180.8 511.4975 180.8 513.8975 
L 180.8 618.38 
Q 180.8 620.78 183.2 620.78 
z
" style="fill: #4c4c4c; opacity: 0.5; stroke: #4c4c4c; stroke-linejoin: miter"/>
    </g>
    <g id="patch_8">
     <path d="M 181.2 618.78 
L 318.72375 618.78 
Q 321.12375 618.78 321.12375 616.38 
L 321.12375 511.8975 
Q 321.12375 509.4975 318.72375 509.4975 
L 181.2 509.4975 
Q 178.8 509.4975 178.8 511.8975 
L 178.8 616.38 
Q 178.8 618.78 181.2 618.78 
z
" style="fill: #ffffff; stroke: #cccccc; stroke-linejoin: miter"/>
    </g>
    <g id="line2d_29">
     <path d="M 183.6 519.215625 
L 195.6 519.215625 
L 207.6 519.215625 
" style="fill: none; stroke: #1f77b4; stroke-width: 3; stroke-linecap: square"/>
    </g>
    <g id="text_15">
     <!-- Asphalt (AC8DS) -->
     <g transform="translate(217.2 523.415625) scale(0.12 -0.12)">
      <defs>
       <path id="DejaVuSans-41" d="M 2188 4044 
L 1331 1722 
L 3047 1722 
L 2188 4044 
z
M 1831 4666 
L 2547 4666 
L 4325 0 
L 3669 0 
L 3244 1197 
L 1141 1197 
L 716 0 
L 50 0 
L 1831 4666 
z
" transform="scale(0.015625)"/>
       <path id="DejaVuSans-73" d="M 2834 3397 
L 2834 2853 
Q 2591 2978 2328 3040 
Q 2066 3103 1784 3103 
Q 1356 3103 1142 2972 
Q 928 2841 928 2578 
Q 928 2378 1081 2264 
Q 1234 2150 1697 2047 
L 1894 2003 
Q 2506 1872 2764 1633 
Q 3022 1394 3022 966 
Q 3022 478 2636 193 
Q 2250 -91 1575 -91 
Q 1294 -91 989 -36 
Q 684 19 347 128 
L 347 722 
Q 666 556 975 473 
Q 1284 391 1588 391 
Q 1994 391 2212 530 
Q 2431 669 2431 922 
Q 2431 1156 2273 1281 
Q 2116 1406 1581 1522 
L 1381 1569 
Q 847 1681 609 1914 
Q 372 2147 372 2553 
Q 372 3047 722 3315 
Q 1072 3584 1716 3584 
Q 2034 3584 2315 3537 
Q 2597 3491 2834 3397 
z
" transform="scale(0.015625)"/>
       <path id="DejaVuSans-70" d="M 1159 525 
L 1159 -1331 
L 581 -1331 
L 581 3500 
L 1159 3500 
L 1159 2969 
Q 1341 3281 1617 3432 
Q 1894 3584 2278 3584 
Q 2916 3584 3314 3078 
Q 3713 2572 3713 1747 
Q 3713 922 3314 415 
Q 2916 -91 2278 -91 
Q 1894 -91 1617 61 
Q 1341 213 1159 525 
z
M 3116 1747 
Q 3116 2381 2855 2742 
Q 2594 3103 2138 3103 
Q 1681 3103 1420 2742 
Q 1159 2381 1159 1747 
Q 1159 1113 1420 752 
Q 1681 391 2138 391 
Q 2594 391 2855 752 
Q 3116 1113 3116 1747 
z
" transform="scale(0.015625)"/>
       <path id="DejaVuSans-68" d="M 3513 2113 
L 3513 0 
L 2938 0 
L 2938 2094 
Q 2938 2591 2744 2837 
Q 2550 3084 2163 3084 
Q 1697 3084 1428 2787 
Q 1159 2491 1159 1978 
L 1159 0 
L 581 0 
L 581 4863 
L 1159 4863 
L 1159 2956 
Q 1366 3272 1645 3428 
Q 1925 3584 2291 3584 
Q 2894 3584 3203 3211 
Q 3513 2838 3513 2113 
z
" transform="scale(0.015625)"/>
       <path id="DejaVuSans-28" d="M 1984 4856 
Q 1566 4138 1362 3434 
Q 1159 2731 1159 2009 
Q 1159 1288 1364 580 
Q 1569 -128 1984 -844 
L 1484 -844 
Q 1016 -109 783 600 
Q 550 1309 550 2009 
Q 550 2706 781 3412 
Q 1013 4119 1484 4856 
L 1984 4856 
z
" transform="scale(0.015625)"/>
       <path id="DejaVuSans-29" d="M 513 4856 
L 1013 4856 
Q 1481 4119 1714 3412 
Q 1947 2706 1947 2009 
Q 1947 1309 1714 600 
Q 1481 -109 1013 -844 
L 513 -844 
Q 928 -128 1133 580 
Q 1338 1288 1338 2009 
Q 1338 2731 1133 3434 
Q 928 4138 513 4856 
z
" transform="scale(0.015625)"/>
      </defs>
      <use xlink:href="#DejaVuSans-41"/>
      <use xlink:href="#DejaVuSans-73" x="68.408203"/>
      <use xlink:href="#DejaVuSans-70" x="120.507812"/>
      <use xlink:href="#DejaVuSans-68" x="183.984375"/>
      <use xlink:href="#DejaVuSans-61" x="247.363281"/>
      <use xlink:href="#DejaVuSans-6c" x="308.642578"/>
      <use xlink:href="#DejaVuSans-74" x="336.425781"/>
      <use xlink:href="#DejaVuSans-20" x="375.634766"/>
      <use xlink:href="#DejaVuSans-28" x="407.421875"/>
      <use xlink:href="#DejaVuSans-41" x="446.435547"/>
      <use xlink:href="#DejaVuSans-43" x="513.09375"/>
      <use xlink:href="#DejaVuSans-38" x="582.917969"/>
      <use xlink:href="#DejaVuSans-44" x="646.541016"/>
      <use xlink:href="#DejaVuSans-53" x="723.542969"/>
      <use xlink:href="#DejaVuSans-29" x="787.019531"/>
     </g>
    </g>
    <g id="line2d_30">
     <path d="M 183.6 536.829375 
L 195.6 536.829375 
L 207.6 536.829375 
" style="fill: none; stroke: #ff7f0e; stroke-width: 3; stroke-linecap: square"/>
    </g>
    <g id="text_16">
     <!-- Asphalt (PA8) -->
     <g transform="translate(217.2 541.029375) scale(0.12 -0.12)">
      <defs>
       <path id="DejaVuSans-50" d="M 1259 4147 
L 1259 2394 
L 2053 2394 
Q 2494 2394 2734 2622 
Q 2975 2850 2975 3272 
Q 2975 3691 2734 3919 
Q 2494 4147 2053 4147 
L 1259 4147 
z
M 628 4666 
L 2053 4666 
Q 2838 4666 3239 4311 
Q 3641 3956 3641 3272 
Q 3641 2581 3239 2228 
Q 2838 1875 2053 1875 
L 1259 1875 
L 1259 0 
L 628 0 
L 628 4666 
z
" transform="scale(0.015625)"/>
      </defs>
      <use xlink:href="#DejaVuSans-41"/>
      <use xlink:href="#DejaVuSans-73" x="68.408203"/>
      <use xlink:href="#DejaVuSans-70" x="120.507812"/>
      <use xlink:href="#DejaVuSans-68" x="183.984375"/>
      <use xlink:href="#DejaVuSans-61" x="247.363281"/>
      <use xlink:href="#DejaVuSans-6c" x="308.642578"/>
      <use xlink:href="#DejaVuSans-74" x="336.425781"/>
      <use xlink:href="#DejaVuSans-20" x="375.634766"/>
      <use xlink:href="#DejaVuSans-28" x="407.421875"/>
      <use xlink:href="#DejaVuSans-50" x="446.435547"/>
      <use xlink:href="#DejaVuSans-41" x="500.363281"/>
      <use xlink:href="#DejaVuSans-38" x="568.771484"/>
      <use xlink:href="#DejaVuSans-29" x="632.394531"/>
     </g>
    </g>
    <g id="line2d_31">
     <path d="M 183.6 554.443125 
L 195.6 554.443125 
L 207.6 554.443125 
" style="fill: none; stroke: #2ca02c; stroke-width: 3; stroke-linecap: square"/>
    </g>
    <g id="text_17">
     <!-- STL plate -->
     <g transform="translate(217.2 558.643125) scale(0.12 -0.12)">
      <defs>
       <path id="DejaVuSans-54" d="M -19 4666 
L 3928 4666 
L 3928 4134 
L 2272 4134 
L 2272 0 
L 1638 0 
L 1638 4134 
L -19 4134 
L -19 4666 
z
" transform="scale(0.015625)"/>
       <path id="DejaVuSans-4c" d="M 628 4666 
L 1259 4666 
L 1259 531 
L 3531 531 
L 3531 0 
L 628 0 
L 628 4666 
z
" transform="scale(0.015625)"/>
      </defs>
      <use xlink:href="#DejaVuSans-53"/>
      <use xlink:href="#DejaVuSans-54" x="63.476562"/>
      <use xlink:href="#DejaVuSans-4c" x="124.560547"/>
      <use xlink:href="#DejaVuSans-20" x="180.273438"/>
      <use xlink:href="#DejaVuSans-70" x="212.060547"/>
      <use xlink:href="#DejaVuSans-6c" x="275.537109"/>
      <use xlink:href="#DejaVuSans-61" x="303.320312"/>
      <use xlink:href="#DejaVuSans-74" x="364.599609"/>
      <use xlink:href="#DejaVuSans-65" x="403.808594"/>
     </g>
    </g>
    <g id="line2d_32">
     <path d="M 183.6 572.056875 
L 195.6 572.056875 
L 207.6 572.056875 
" style="fill: none; stroke: #d62728; stroke-width: 3; stroke-linecap: square"/>
    </g>
    <g id="text_18">
     <!-- Concrete -->
     <g transform="translate(217.2 576.256875) scale(0.12 -0.12)">
      <use xlink:href="#DejaVuSans-43"/>
      <use xlink:href="#DejaVuSans-6f" x="69.824219"/>
      <use xlink:href="#DejaVuSans-6e" x="131.005859"/>
      <use xlink:href="#DejaVuSans-63" x="194.384766"/>
      <use xlink:href="#DejaVuSans-72" x="249.365234"/>
      <use xlink:href="#DejaVuSans-65" x="288.228516"/>
      <use xlink:href="#DejaVuSans-74" x="349.751953"/>
      <use xlink:href="#DejaVuSans-65" x="388.960938"/>
     </g>
    </g>
    <g id="line2d_33">
     <path d="M 183.6 589.670625 
L 195.6 589.670625 
L 207.6 589.670625 
" style="fill: none; stroke: #9467bd; stroke-width: 3; stroke-linecap: square"/>
    </g>
    <g id="text_19">
     <!-- Wood -->
     <g transform="translate(217.2 593.870625) scale(0.12 -0.12)">
      <defs>
       <path id="DejaVuSans-57" d="M 213 4666 
L 850 4666 
L 1831 722 
L 2809 4666 
L 3519 4666 
L 4500 722 
L 5478 4666 
L 6119 4666 
L 4947 0 
L 4153 0 
L 3169 4050 
L 2175 0 
L 1381 0 
L 213 4666 
z
" transform="scale(0.015625)"/>
      </defs>
      <use xlink:href="#DejaVuSans-57"/>
      <use xlink:href="#DejaVuSans-6f" x="93.001953"/>
      <use xlink:href="#DejaVuSans-6f" x="154.183594"/>
      <use xlink:href="#DejaVuSans-64" x="215.365234"/>
     </g>
    </g>
    <g id="line2d_34">
     <path d="M 183.6 607.284375 
L 195.6 607.284375 
L 207.6 607.284375 
" style="fill: none; stroke: #8c564b; stroke-width: 3; stroke-linecap: square"/>
    </g>
    <g id="text_20">
     <!-- Radome -->
     <g transform="translate(217.2 611.484375) scale(0.12 -0.12)">
      <use xlink:href="#DejaVuSans-52"/>
      <use xlink:href="#DejaVuSans-61" x="67.232422"/>
      <use xlink:href="#DejaVuSans-64" x="128.511719"/>
      <use xlink:href="#DejaVuSans-6f" x="191.988281"/>
      <use xlink:href="#DejaVuSans-6d" x="253.169922"/>
      <use xlink:href="#DejaVuSans-65" x="350.582031"/>
     </g>
    </g>
   </g>
  </g>
 </g>
 <defs>
  <clipPath id="pa936419c6d">
   <rect x="172.8" y="84.24" width="1071.36" height="540.54"/>
  </clipPath>
 </defs>
</svg>
